<svg width="16" height="20" viewBox="0 0 16 20" fill="none" xmlns="http://www.w3.org/2000/svg">
<path d="M15.489 6.69991C15.375 6.78836 13.3625 7.92237 13.3625 10.4439C13.3625 13.3605 15.9234 14.3923 16 14.4179C15.9882 14.4808 15.5932 15.831 14.6498 17.2067C13.8086 18.4174 12.9301 19.6261 11.5937 19.6261C10.2572 19.6261 9.91328 18.8498 8.37047 18.8498C6.86697 18.8498 6.33239 19.6516 5.10994 19.6516C3.88748 19.6516 3.03452 18.5314 2.0538 17.1556C0.917823 15.5401 0 13.0303 0 10.6483C0 6.82766 2.48422 4.80138 4.92912 4.80138C6.22823 4.80138 7.31114 5.65434 8.12677 5.65434C8.90308 5.65434 10.1137 4.75028 11.5917 4.75028C12.1518 4.75028 14.1644 4.80138 15.489 6.69991ZM10.8901 3.13278C11.5013 2.40757 11.9337 1.4013 11.9337 0.395038C11.9337 0.255497 11.9219 0.113991 11.8963 0C10.9019 0.0373419 9.71871 0.662327 9.00528 1.48974C8.44515 2.12652 7.92237 3.13279 7.92237 4.15281C7.92237 4.30611 7.94792 4.4594 7.95971 4.50854C8.0226 4.52033 8.1248 4.53409 8.227 4.53409C9.11927 4.53409 10.2415 3.93662 10.8901 3.13278Z" fill="black"/>
</svg>
