<svg width="16" height="16" viewBox="0 0 16 16" fill="none" xmlns="http://www.w3.org/2000/svg">
<g clip-path="url(#clip0_7178_26452)">
<path d="M3.3704 9.66941L2.84103 11.7485L0.906208 11.7916C0.32798 10.6633 0 9.37229 0 8.00041C0 6.67382 0.306653 5.42282 0.850218 4.32129H0.850634L2.57317 4.65354L3.32774 6.45491C3.16981 6.93932 3.08373 7.45932 3.08373 8.00041C3.08379 8.58766 3.1849 9.15032 3.3704 9.66941Z" fill="#FBBB00"/>
<path d="M15.0754 6.50586C15.1627 6.9898 15.2083 7.48958 15.2083 8.00036C15.2083 8.57311 15.151 9.1318 15.042 9.6707C14.6718 11.5045 13.7046 13.1059 12.3648 14.239L12.3643 14.2386L10.1947 14.1221L9.88764 12.1054C10.7767 11.5569 11.4715 10.6984 11.8375 9.6707H7.77148V6.50586H11.8968H15.0754Z" fill="#518EF8"/>
<path d="M12.365 14.2382L12.3654 14.2386C11.0623 15.3406 9.40694 15.9999 7.60498 15.9999C4.70921 15.9999 2.19155 14.2971 0.907227 11.7911L3.37142 9.66895C4.01356 11.472 5.6668 12.7555 7.60498 12.7555C8.43806 12.7555 9.21854 12.5186 9.88825 12.105L12.365 14.2382Z" fill="#28B446"/>
<path d="M12.4579 1.84175L9.99456 3.9635C9.30144 3.50769 8.48211 3.24437 7.60433 3.24437C5.62228 3.24437 3.93812 4.58678 3.32814 6.4545L0.851002 4.32088H0.850586C2.11611 1.75384 4.66552 0 7.60433 0C9.44933 0 11.141 0.691437 12.4579 1.84175Z" fill="#F14336"/>
</g>
<defs>
<clipPath id="clip0_7178_26452">
<rect width="15.2079" height="16" fill="white"/>
</clipPath>
</defs>
</svg>
