<svg width="22" height="13" viewBox="0 0 22 13" fill="none" xmlns="http://www.w3.org/2000/svg">
<g clip-path="url(#clip0_8433_36595)">
<path fill-rule="evenodd" clip-rule="evenodd" d="M10.9996 2.47218C11.8409 2.46918 12.6571 2.75795 13.3094 3.28932C13.9616 3.82068 14.4093 4.56174 14.5764 5.38625C14.7435 6.21075 14.6195 7.06768 14.2256 7.81102C13.8317 8.55436 13.1922 9.13812 12.4161 9.46283C11.6401 9.78755 10.7754 9.83312 9.96953 9.5918C9.16362 9.35048 8.46633 8.83718 7.99645 8.13937C7.52657 7.44157 7.31318 6.60242 7.39264 5.76492C7.47211 4.92743 7.8395 4.14339 8.43223 3.5464C8.76826 3.20699 9.16808 2.93735 9.60869 2.75299C10.0493 2.56864 10.522 2.47321 10.9996 2.47218V2.47218ZM0.187602 5.60532C0.75705 4.91349 1.37446 4.26258 2.03526 3.6574C4.60801 1.31561 7.53347 0.0641426 10.5628 -0.000310562C13.5921 -0.0647637 16.6661 1.05959 19.5773 3.45867C20.3757 4.12057 21.126 4.83853 21.8224 5.60711C21.9306 5.72897 21.994 5.88408 22.0021 6.04683C22.0102 6.20959 21.9626 6.37025 21.8671 6.50229C21.0924 7.60658 20.1654 8.59572 19.1135 9.44028C16.9164 11.2158 14.1807 12.1913 11.3559 12.2064C8.51068 12.199 5.73936 11.2998 3.43174 9.63543C2.19726 8.75859 1.09353 7.71092 0.153585 6.52378C0.0485573 6.39189 -0.00575659 6.22674 0.000483659 6.05825C0.0067239 5.88976 0.0731055 5.72908 0.187602 5.60532V5.60532ZM2.98594 4.71014C2.50835 5.14409 2.05472 5.6037 1.62706 6.08693C2.39814 6.98911 3.27724 7.79305 4.24457 8.48065C6.31338 9.97538 8.79826 10.7849 11.3505 10.7956C13.855 10.7802 16.2799 9.91401 18.2273 8.33921C19.0302 7.69506 19.7516 6.95557 20.3758 6.13706C19.8404 5.57539 19.2725 5.04572 18.6749 4.5508C16.0341 2.37371 13.2626 1.35679 10.5825 1.41229C7.90228 1.46779 5.30446 2.59214 2.98594 4.70298V4.71014ZM10.0919 3.31544C10.3706 3.31544 10.643 3.39808 10.8747 3.55291C11.1064 3.70773 11.287 3.92779 11.3937 4.18525C11.5003 4.44272 11.5282 4.72603 11.4738 4.99935C11.4195 5.27267 11.2853 5.52373 11.0882 5.72079C10.8912 5.91784 10.6401 6.05204 10.3668 6.1064C10.0935 6.16077 9.81016 6.13287 9.55269 6.02622C9.29523 5.91958 9.07517 5.73898 8.92035 5.50727C8.76552 5.27556 8.68288 5.00314 8.68288 4.72446C8.68265 4.53936 8.71893 4.35603 8.78966 4.18498C8.86038 4.01392 8.96416 3.8585 9.09505 3.72761C9.22594 3.59672 9.38136 3.49295 9.55241 3.42222C9.72347 3.35149 9.9068 3.31521 10.0919 3.31544V3.31544Z" fill="#bbbbbb"/>
</g>
<defs>
<clipPath id="clip0_8433_36595">
<rect width="22" height="12.2067" fill="white"/>
</clipPath>
</defs>
</svg>
